<svg version="1.1" id="Layer_1" xmlns="http://www.w3.org/2000/svg" xmlns:xlink="http://www.w3.org/1999/xlink" x="0px" y="0px"
	 width="100%" viewBox="0 0 171 171" enable-background="new 0 0 171 171" xml:space="preserve">
<path fill="#FEFEFE" opacity="1.000000" stroke="none" 
	d="
M98.000000,172.000000 
	C65.333336,172.000000 33.166672,172.000000 1.000004,172.000000 
	C1.000003,115.000008 1.000003,58.000011 1.000001,1.000012 
	C57.999989,1.000008 114.999977,1.000008 171.999969,1.000004 
	C171.999985,57.999989 171.999985,114.999977 172.000000,171.999985 
	C147.500000,172.000000 123.000000,172.000000 98.000000,172.000000 
M64.695213,26.197927 
	C51.860348,33.616943 39.025478,41.035961 25.636753,48.775131 
	C28.237669,50.293617 30.411274,51.226051 32.175034,52.661926 
	C35.929165,55.718151 39.173031,55.291653 43.280930,52.858955 
	C56.134514,45.247051 69.244240,38.064987 82.322517,30.839090 
	C83.714645,30.069927 85.816017,29.417425 87.130745,29.916451 
	C89.927666,30.978064 92.423447,32.833046 95.619324,34.699665 
	C84.826401,40.906406 74.790710,46.677681 64.029572,52.866146 
	C67.364723,54.767990 70.303429,56.220009 72.992500,58.040714 
	C75.631073,59.827225 77.741142,59.816380 80.572044,58.090401 
	C88.792213,53.078625 97.224419,48.409245 105.657730,43.758389 
	C106.883698,43.082279 108.852837,42.620003 109.991364,43.134930 
	C113.208527,44.589977 116.172653,46.604492 119.907814,48.791687 
	C103.759201,57.954628 88.381523,66.680130 72.516876,75.681938 
	C75.790367,77.605652 78.768753,79.080940 81.432312,80.994469 
	C84.412148,83.135201 86.800278,82.840248 89.934982,80.979118 
	C106.930580,70.888580 124.085556,61.066574 141.177246,51.137634 
	C142.390579,50.432774 143.536713,49.612240 145.016068,48.648842 
	C138.633560,44.937344 132.854172,41.312168 126.812088,38.196445 
	C124.477386,36.992519 121.553207,36.501694 118.886383,36.463245 
	C113.675606,36.388126 108.456940,36.859871 103.012680,37.115971 
	C103.679321,32.715187 104.222908,29.126757 104.793221,25.361887 
	C98.989304,21.956558 93.340263,18.484613 87.505798,15.358747 
	C86.408470,14.770842 84.337967,15.131530 83.115318,15.792331 
	C77.126923,19.028864 71.273415,22.514961 64.695213,26.197927 
M136.033890,125.269463 
	C136.033890,127.141258 136.033890,129.013062 136.033890,131.616409 
	C139.560043,129.611526 142.039810,127.924728 144.739120,126.736786 
	C148.124710,125.246819 149.132645,122.979141 148.992706,119.328690 
	C148.686707,111.344780 148.872284,103.341782 148.868683,95.346581 
	C148.863098,82.910347 148.867203,70.474121 148.867203,57.922642 
	C138.069717,61.755920 134.932495,64.693489 131.105026,74.362175 
	C128.354324,81.310776 125.625221,88.268044 122.841347,95.203316 
	C122.018837,97.252365 121.042633,99.239716 120.136864,101.255341 
	C119.537148,101.594933 118.937431,101.934525 118.337715,102.274117 
	C113.068565,96.073326 107.799423,89.872528 102.681602,83.849808 
	C99.764000,85.513237 98.130615,86.730438 96.299698,87.432541 
	C91.574776,89.244423 90.416542,92.474884 90.506027,97.440056 
	C90.830124,115.423187 90.610489,133.416122 90.596420,151.405365 
	C90.595039,153.173401 90.596237,154.941422 90.596237,156.903000 
	C102.159393,152.847504 103.073051,151.639633 103.075485,140.957535 
	C103.075867,139.291855 103.072365,137.626190 103.072311,135.960510 
	C103.071999,125.384003 103.072144,114.807487 103.072144,102.790993 
	C110.177986,109.606094 116.292480,115.470413 122.830040,121.740486 
	C127.001915,111.350533 130.885620,101.678276 134.769318,92.006012 
	C135.191910,92.075882 135.614517,92.145752 136.037125,92.215614 
	C136.037125,102.919304 136.037125,113.622986 136.033890,125.269463 
M67.997314,86.147141 
	C67.997314,102.388199 67.997314,118.629250 67.997314,135.072693 
	C66.991440,134.938919 66.451141,135.010437 66.073303,134.795853 
	C56.535591,129.379089 46.941616,124.052963 37.571228,118.359215 
	C36.183380,117.515915 35.182983,114.920120 35.160343,113.120560 
	C34.971901,98.141037 35.078636,83.158005 35.016914,68.176361 
	C35.011196,66.789391 34.924389,64.717491 34.074593,64.138275 
	C30.459160,61.674000 26.542192,59.652126 22.271881,57.202927 
	C22.271881,78.459061 22.391911,98.758812 22.165546,119.054710 
	C22.122831,122.884377 23.152607,124.993279 26.542522,126.883926 
	C43.372520,136.270493 60.042282,145.944244 76.781555,155.493912 
	C77.854744,156.106171 79.037918,156.525635 80.717125,157.280899 
	C80.717125,155.033524 80.717468,153.414215 80.717064,151.794922 
	C80.712891,134.981262 79.945831,118.119385 81.004196,101.372871 
	C81.593628,92.046066 77.657852,87.703888 70.108047,84.780861 
	C69.559143,84.568336 68.719513,85.106728 67.997314,86.147141 
z"/>
<path fill="#0B2239" opacity="1.000000" stroke="none" 
	d="
M65.033722,26.055393 
	C71.273415,22.514961 77.126923,19.028864 83.115318,15.792331 
	C84.337967,15.131530 86.408470,14.770842 87.505798,15.358747 
	C93.340263,18.484613 98.989304,21.956558 104.793221,25.361887 
	C104.222908,29.126757 103.679321,32.715187 103.012680,37.115971 
	C108.456940,36.859871 113.675606,36.388126 118.886383,36.463245 
	C121.553207,36.501694 124.477386,36.992519 126.812088,38.196445 
	C132.854172,41.312168 138.633560,44.937344 145.016068,48.648842 
	C143.536713,49.612240 142.390579,50.432774 141.177246,51.137634 
	C124.085556,61.066574 106.930580,70.888580 89.934982,80.979118 
	C86.800278,82.840248 84.412148,83.135201 81.432312,80.994469 
	C78.768753,79.080940 75.790367,77.605652 72.516876,75.681938 
	C88.381523,66.680130 103.759201,57.954628 119.907814,48.791687 
	C116.172653,46.604492 113.208527,44.589977 109.991364,43.134930 
	C108.852837,42.620003 106.883698,43.082279 105.657730,43.758389 
	C97.224419,48.409245 88.792213,53.078625 80.572044,58.090401 
	C77.741142,59.816380 75.631073,59.827225 72.992500,58.040714 
	C70.303429,56.220009 67.364723,54.767990 64.029572,52.866146 
	C74.790710,46.677681 84.826401,40.906406 95.619324,34.699665 
	C92.423447,32.833046 89.927666,30.978064 87.130745,29.916451 
	C85.816017,29.417425 83.714645,30.069927 82.322517,30.839090 
	C69.244240,38.064987 56.134514,45.247051 43.280930,52.858955 
	C39.173031,55.291653 35.929165,55.718151 32.175034,52.661926 
	C30.411274,51.226051 28.237669,50.293617 25.636753,48.775131 
	C39.025478,41.035961 51.860348,33.616943 65.033722,26.055393 
z"/>
<path fill="#19568E" opacity="1.000000" stroke="none" 
	d="
M136.035507,124.798065 
	C136.037125,113.622986 136.037125,102.919304 136.037125,92.215614 
	C135.614517,92.145752 135.191910,92.075882 134.769318,92.006012 
	C130.885620,101.678276 127.001915,111.350533 122.830040,121.740486 
	C116.292480,115.470413 110.177986,109.606094 103.072144,102.790993 
	C103.072144,114.807487 103.071999,125.384003 103.072311,135.960510 
	C103.072365,137.626190 103.075867,139.291855 103.075485,140.957535 
	C103.073051,151.639633 102.159393,152.847504 90.596237,156.903000 
	C90.596237,154.941422 90.595039,153.173401 90.596420,151.405365 
	C90.610489,133.416122 90.830124,115.423187 90.506027,97.440056 
	C90.416542,92.474884 91.574776,89.244423 96.299698,87.432541 
	C98.130615,86.730438 99.764000,85.513237 102.681602,83.849808 
	C107.799423,89.872528 113.068565,96.073326 118.337715,102.274117 
	C118.937431,101.934525 119.537148,101.594933 120.136864,101.255341 
	C121.042633,99.239716 122.018837,97.252365 122.841347,95.203316 
	C125.625221,88.268044 128.354324,81.310776 131.105026,74.362175 
	C134.932495,64.693489 138.069717,61.755920 148.867203,57.922642 
	C148.867203,70.474121 148.863098,82.910347 148.868683,95.346581 
	C148.872284,103.341782 148.686707,111.344780 148.992706,119.328690 
	C149.132645,122.979141 148.124710,125.246819 144.739120,126.736786 
	C142.039810,127.924728 139.560043,129.611526 136.033890,131.616409 
	C136.033890,129.013062 136.033890,127.141258 136.035507,124.798065 
z"/>
<path fill="#225074" opacity="1.000000" stroke="none" 
	d="
M68.006180,85.721573 
	C68.719513,85.106728 69.559143,84.568336 70.108047,84.780861 
	C77.657852,87.703888 81.593628,92.046066 81.004196,101.372871 
	C79.945831,118.119385 80.712891,134.981262 80.717064,151.794922 
	C80.717468,153.414215 80.717125,155.033524 80.717125,157.280899 
	C79.037918,156.525635 77.854744,156.106171 76.781555,155.493912 
	C60.042282,145.944244 43.372520,136.270493 26.542522,126.883926 
	C23.152607,124.993279 22.122831,122.884377 22.165546,119.054710 
	C22.391911,98.758812 22.271881,78.459061 22.271881,57.202927 
	C26.542192,59.652126 30.459160,61.674000 34.074593,64.138275 
	C34.924389,64.717491 35.011196,66.789391 35.016914,68.176361 
	C35.078636,83.158005 34.971901,98.141037 35.160343,113.120560 
	C35.182983,114.920120 36.183380,117.515915 37.571228,118.359215 
	C46.941616,124.052963 56.535591,129.379089 66.073303,134.795853 
	C66.451141,135.010437 66.991440,134.938919 67.997314,135.072693 
	C67.997314,118.629250 67.997314,102.388199 68.006180,85.721573 
z"/>
</svg>